<svg xmlns="http://www.w3.org/2000/svg" xmlns:xlink="http://www.w3.org/1999/xlink" style="height:unset;" data-version="6.4" viewBox="0 0 170 31"><jvs:data xmlns="http://www.w3.org/1999/xhtml" xmlns:jvs="http://www.janvas.com/jvs" data-type="jvs-doc-preferences">{"unitKey":"PIXEL","unitValue":1,"drawingScale":1,"findAllElementAtPoint":1,"optimizeZoom":false,"mantainAspectRatio":true,"interactionLabelVisibility":false,"svgAlignmentPreserveAspectRatio":"unset","snap":{"distance":10,"offsetDistance":50,"snapToPoints":true,"snapToContour":true,"snapToPerpendicular":true,"snapToTangent":true,"snapToIntersection":true,"snapToCenter":true,"snapToGrid":true,"snapToOffset":true,"snapToAngles":true,"snapAngleList":[45],"useSmartPoints":true,"useSmartGuides":true},"fixedDecimals":0,"rulersVisibility":true,"gridVisibility":false,"elementOriginVisibility":false,"gridStep":1,"origin":{"x":0,"y":0},"selectMainNodes":true,"scaleStrokeAndEffects":true,"scaleText":true,"moveStep":1,"rotateStep":45}</jvs:data><defs>
            <link xmlns="http://www.w3.org/1999/xhtml" rel="stylesheet" type="text/css" href="https://fonts.googleapis.com/css?family=Poppins:700&amp;subset=latin"></link></defs><svg class="page showed" xmlns="http://www.w3.org/2000/svg" xmlns:xlink="http://www.w3.org/1999/xlink" height="31" width="170" data-page-width="170" data-page-height="31" style="position: absolute;left: 0; top:0; right: 0; bottom:0; " viewBox="0 0 170 31" y="0">
        <g class="content">
            <g class="layers">
                <g class="layer" data-layer-name="first layer" data-layer-color="#007fff" active="">
                

<path d="M 15.5 0.96875 C 12.626 0.96875 9.81653 1.82099 7.42688 3.41771 C 5.03722 5.01442 3.17472 7.28389 2.07488 9.93913 C 0.975046 12.5944 0.687279 15.5161 1.24797 18.3349 C 1.8086600000000002 21.1537 3.19263 23.7429 5.22486 25.7751 C 7.25709 27.8074 9.84631 29.1913 12.6651 29.752 C 15.4839 30.3127 18.4056 30.025 21.0609 28.9251 C 23.7161 27.8253 25.9856 25.9628 27.5823 23.5731 C 29.179 21.1835 30.0313 18.374 30.0313 15.5 C 30.0313 11.6461 28.5003 7.94999 25.7752 5.22485 C 23.05 2.49972 19.3539 0.96875 15.5 0.96875 L 15.5 0.96875 Z M 8.71876 22.2812 L 11.7703 13.1266 L 17.8734 19.2297 L 8.71876 22.2812 Z M 19.2297 17.8734 L 13.1266 11.7703 L 22.2813 8.71875 L 19.2297 17.8734 Z" fill="#4E66F8" transform="matrix(1 0 0 1 3.80685 -0.296071)" class=""/>
<text data-type="TextBox" transform="matrix(1 0 0 1 41.5853 5.331)" width="174.0000469719206" height="21.209710091352463" font-family="Poppins" font-size="15" font-style="normal" font-weight="700" text-align="left" text-anchor="start" focusable="true" class="" stroke-width="1.2781760098222406"><tspan style="white-space: pre;" x="0" dy="16"><![CDATA[PROVISIO Hotels]]></tspan></text></g>
            </g>
        </g>
    </svg></svg>